<mxfile host="Electron" modified="2023-04-24T18:25:55.459Z" agent="Mozilla/5.0 (Macintosh; Intel Mac OS X 10_15_7) AppleWebKit/537.36 (KHTML, like Gecko) draw.io/21.2.1 Chrome/112.0.5615.87 Electron/24.1.2 Safari/537.36" etag="DXyMxbIIlvi3FPVyCbhG" version="21.2.1" type="device">
  <diagram name="Page-1" id="dXb-KlxMB55rjeR7kF5Y">
    <mxGraphModel dx="1034" dy="501" grid="1" gridSize="10" guides="1" tooltips="1" connect="1" arrows="1" fold="1" page="1" pageScale="1" pageWidth="827" pageHeight="1169" math="0" shadow="0">
      <root>
        <mxCell id="0" />
        <mxCell id="1" parent="0" />
        <mxCell id="adCYpni50cAu7SaAL4h1-1" value="" style="strokeWidth=1;shadow=0;dashed=0;align=center;html=1;shape=mxgraph.mockup.containers.browserWindow;rSize=0;strokeColor=#666666;strokeColor2=#008cff;strokeColor3=#c4c4c4;mainText=,;recursiveResize=0;fontStyle=0" parent="1" vertex="1">
          <mxGeometry x="44" y="130" width="740" height="890" as="geometry" />
        </mxCell>
        <mxCell id="adCYpni50cAu7SaAL4h1-2" value="Page 1" style="strokeWidth=1;shadow=0;dashed=0;align=center;html=1;shape=mxgraph.mockup.containers.anchor;fontSize=17;fontColor=#666666;align=left;" parent="adCYpni50cAu7SaAL4h1-1" vertex="1">
          <mxGeometry x="60" y="12" width="110" height="26" as="geometry" />
        </mxCell>
        <mxCell id="adCYpni50cAu7SaAL4h1-3" value="http://127.0.0.1:5005/" style="strokeWidth=1;shadow=0;dashed=0;align=center;html=1;shape=mxgraph.mockup.containers.anchor;rSize=0;fontSize=17;fontColor=#666666;align=left;" parent="adCYpni50cAu7SaAL4h1-1" vertex="1">
          <mxGeometry x="130" y="60" width="250" height="26" as="geometry" />
        </mxCell>
        <mxCell id="adCYpni50cAu7SaAL4h1-4" value="&lt;font style=&quot;font-size: 30px;&quot;&gt;&lt;u&gt;Site Title&lt;/u&gt;&lt;/font&gt;" style="text;html=1;strokeColor=none;fillColor=none;align=center;verticalAlign=middle;whiteSpace=wrap;rounded=0;flipH=1;" parent="adCYpni50cAu7SaAL4h1-1" vertex="1">
          <mxGeometry x="31.25" y="100" width="190" height="140" as="geometry" />
        </mxCell>
        <mxCell id="adCYpni50cAu7SaAL4h1-5" value="Menu Item" style="text;html=1;strokeColor=none;fillColor=none;align=center;verticalAlign=middle;whiteSpace=wrap;rounded=0;fontSize=20;" parent="adCYpni50cAu7SaAL4h1-1" vertex="1">
          <mxGeometry x="260" y="155" width="100" height="21" as="geometry" />
        </mxCell>
        <mxCell id="adCYpni50cAu7SaAL4h1-6" value="Menu Item" style="text;html=1;strokeColor=none;fillColor=none;align=center;verticalAlign=middle;whiteSpace=wrap;rounded=0;fontSize=20;" parent="adCYpni50cAu7SaAL4h1-1" vertex="1">
          <mxGeometry x="570" y="155" width="100" height="21" as="geometry" />
        </mxCell>
        <mxCell id="adCYpni50cAu7SaAL4h1-7" value="Menu Item" style="text;html=1;strokeColor=none;fillColor=none;align=center;verticalAlign=middle;whiteSpace=wrap;rounded=0;fontSize=20;" parent="adCYpni50cAu7SaAL4h1-1" vertex="1">
          <mxGeometry x="415" y="155" width="100" height="21" as="geometry" />
        </mxCell>
        <mxCell id="adCYpni50cAu7SaAL4h1-8" value="Welcome: User______________________________________________" style="text;html=1;strokeColor=none;fillColor=none;align=left;verticalAlign=middle;whiteSpace=wrap;rounded=0;fontSize=20;fontStyle=4;flipH=1;" parent="adCYpni50cAu7SaAL4h1-1" vertex="1">
          <mxGeometry x="56.25" y="220" width="653.75" height="30" as="geometry" />
        </mxCell>
        <mxCell id="adCYpni50cAu7SaAL4h1-13" value="Moon" style="ellipse;whiteSpace=wrap;html=1;aspect=fixed;fontSize=14;" parent="adCYpni50cAu7SaAL4h1-1" vertex="1">
          <mxGeometry x="43.75" y="770" width="55" height="55" as="geometry" />
        </mxCell>
        <mxCell id="adCYpni50cAu7SaAL4h1-14" value="Moon" style="ellipse;whiteSpace=wrap;html=1;aspect=fixed;fontSize=14;" parent="adCYpni50cAu7SaAL4h1-1" vertex="1">
          <mxGeometry x="123.75" y="770" width="55" height="55" as="geometry" />
        </mxCell>
        <mxCell id="adCYpni50cAu7SaAL4h1-19" value="Back to top" style="text;html=1;strokeColor=none;fillColor=none;align=center;verticalAlign=middle;whiteSpace=wrap;rounded=0;fontSize=14;" parent="adCYpni50cAu7SaAL4h1-1" vertex="1">
          <mxGeometry y="850" width="160" height="30" as="geometry" />
        </mxCell>
        <mxCell id="adCYpni50cAu7SaAL4h1-20" value="Menu Item" style="text;html=1;strokeColor=none;fillColor=none;align=center;verticalAlign=middle;whiteSpace=wrap;rounded=0;fontSize=20;" parent="adCYpni50cAu7SaAL4h1-1" vertex="1">
          <mxGeometry x="60" y="300" width="100" height="21" as="geometry" />
        </mxCell>
        <mxCell id="adCYpni50cAu7SaAL4h1-21" value="Menu Item" style="text;html=1;strokeColor=none;fillColor=none;align=center;verticalAlign=middle;whiteSpace=wrap;rounded=0;fontSize=20;" parent="adCYpni50cAu7SaAL4h1-1" vertex="1">
          <mxGeometry x="370" y="300" width="100" height="21" as="geometry" />
        </mxCell>
        <mxCell id="adCYpni50cAu7SaAL4h1-22" value="Menu Item" style="text;html=1;strokeColor=none;fillColor=none;align=center;verticalAlign=middle;whiteSpace=wrap;rounded=0;fontSize=20;" parent="adCYpni50cAu7SaAL4h1-1" vertex="1">
          <mxGeometry x="215" y="300" width="100" height="21" as="geometry" />
        </mxCell>
        <mxCell id="adCYpni50cAu7SaAL4h1-23" value="Planet Image" style="ellipse;whiteSpace=wrap;html=1;aspect=fixed;" parent="adCYpni50cAu7SaAL4h1-1" vertex="1">
          <mxGeometry x="43.75" y="420" width="300" height="300" as="geometry" />
        </mxCell>
        <mxCell id="adCYpni50cAu7SaAL4h1-27" value="" style="line;strokeWidth=2;html=1;" parent="adCYpni50cAu7SaAL4h1-1" vertex="1">
          <mxGeometry x="61.25" y="330" width="598.75" height="10" as="geometry" />
        </mxCell>
        <mxCell id="adCYpni50cAu7SaAL4h1-28" value="" style="line;strokeWidth=2;html=1;" parent="adCYpni50cAu7SaAL4h1-1" vertex="1">
          <mxGeometry x="400" y="440" width="275" height="10" as="geometry" />
        </mxCell>
        <mxCell id="adCYpni50cAu7SaAL4h1-29" value="" style="line;strokeWidth=2;direction=south;html=1;" parent="adCYpni50cAu7SaAL4h1-1" vertex="1">
          <mxGeometry x="670" y="360" width="10" height="450" as="geometry" />
        </mxCell>
        <mxCell id="adCYpni50cAu7SaAL4h1-31" value="&lt;b&gt;&lt;font style=&quot;font-size: 19px;&quot;&gt;Planet Name&lt;/font&gt;&lt;/b&gt;" style="text;html=1;strokeColor=none;fillColor=none;align=center;verticalAlign=middle;whiteSpace=wrap;rounded=0;" parent="adCYpni50cAu7SaAL4h1-1" vertex="1">
          <mxGeometry x="460" y="400" width="180" height="30" as="geometry" />
        </mxCell>
        <mxCell id="adCYpni50cAu7SaAL4h1-33" value="Delete" style="rounded=1;whiteSpace=wrap;html=1;fontSize=19;strokeWidth=2;" parent="adCYpni50cAu7SaAL4h1-1" vertex="1">
          <mxGeometry x="560" y="290" width="75" height="40" as="geometry" />
        </mxCell>
        <mxCell id="adCYpni50cAu7SaAL4h1-34" value="Planet property" style="text;strokeColor=none;fillColor=none;align=right;verticalAlign=middle;spacingLeft=4;spacingRight=4;overflow=hidden;points=[[0,0.5],[1,0.5]];portConstraint=eastwest;rotatable=0;whiteSpace=wrap;html=1;fontSize=12;" parent="adCYpni50cAu7SaAL4h1-1" vertex="1">
          <mxGeometry x="470" y="460" width="170" height="30" as="geometry" />
        </mxCell>
        <mxCell id="adCYpni50cAu7SaAL4h1-35" value="Planet property" style="text;strokeColor=none;fillColor=none;align=right;verticalAlign=middle;spacingLeft=4;spacingRight=4;overflow=hidden;points=[[0,0.5],[1,0.5]];portConstraint=eastwest;rotatable=0;whiteSpace=wrap;html=1;fontSize=12;" parent="adCYpni50cAu7SaAL4h1-1" vertex="1">
          <mxGeometry x="470" y="490" width="170" height="30" as="geometry" />
        </mxCell>
        <mxCell id="adCYpni50cAu7SaAL4h1-36" value="Planet property" style="text;strokeColor=none;fillColor=none;align=right;verticalAlign=middle;spacingLeft=4;spacingRight=4;overflow=hidden;points=[[0,0.5],[1,0.5]];portConstraint=eastwest;rotatable=0;whiteSpace=wrap;html=1;fontSize=12;" parent="adCYpni50cAu7SaAL4h1-1" vertex="1">
          <mxGeometry x="470" y="520" width="170" height="30" as="geometry" />
        </mxCell>
        <mxCell id="adCYpni50cAu7SaAL4h1-37" value="Lorem ipsum dolor sit amet, consectetur adipisicing elit, sed do eiusmod tempor incididunt ut labore et dolore magna aliqua. Ut enim ad minim veniam, quis nostrud exercitation ullamco laboris nisi ut aliquip ex ea commodo consequat. Duis aute irure dolor in reprehenderit in voluptate velit esse cillum dolore eu fugiat nulla pariatur. Excepteur sint occaecat cupidatat non proident, sunt in culpa qui officia deserunt mollit anim id est laborum." style="text;spacingTop=-5;whiteSpace=wrap;html=1;align=left;fontSize=12;fontFamily=Helvetica;fillColor=none;strokeColor=none;" parent="adCYpni50cAu7SaAL4h1-1" vertex="1">
          <mxGeometry x="455" y="560" width="200" height="190" as="geometry" />
        </mxCell>
        <mxCell id="adCYpni50cAu7SaAL4h1-38" value="List of Moons in planet system" style="text;html=1;strokeColor=none;fillColor=none;align=center;verticalAlign=middle;whiteSpace=wrap;rounded=0;fontSize=12;" parent="adCYpni50cAu7SaAL4h1-1" vertex="1">
          <mxGeometry x="38.13" y="730" width="176.25" height="30" as="geometry" />
        </mxCell>
      </root>
    </mxGraphModel>
  </diagram>
</mxfile>
